<svg xmlns="http://www.w3.org/2000/svg" viewBox="0 0 466.7 521.4">
  <defs>
    <style>
      .cls-1{fill:none;}.cls-2{isolation:isolate;}.cls-3{clip-path:url(#clip-path);}.cls-4{clip-path:url(#clip-path-2);}.cls-5{opacity:0.78;mix-blend-mode:multiply;}.cls-6{clip-path:url(#clip-path-3);}.cls-7{fill:rgba(145, 162, 178,0.5);}.cls-8{clip-path:url(#clip-path-4);}.cls-9{clip-path:url(#clip-path-5);}
    </style>
    <clipPath id="clip-path" transform="translate(-585.67 -145.19)">
      <path d="M124 143h928.5v523.6H124z" class="cls-1"/>
    </clipPath>
    <clipPath id="clip-path-2" transform="translate(-585.67 -145.19)">
      <path d="M124 143h928.5v523.6H124z" class="cls-1"/>
    </clipPath>
    <clipPath id="clip-path-3" transform="translate(-585.67 -145.19)">
      <path d="M777.5 138.2h257.3v529.4H777.5z" class="cls-1"/>
    </clipPath>
    <clipPath id="clip-path-4" transform="translate(-585.67 -145.19)">
      <path d="M729.7 138.2H962v529.4H729.8z" class="cls-1"/>
    </clipPath>
    <clipPath id="clip-path-5" transform="translate(-585.67 -145.19)">
      <path d="M576.7 138.2h484.7v529.4H576.7z" class="cls-1"/>
    </clipPath>
  </defs>
  <g class="cls-2">
    <g id="Layer_1" class="cls-3 cls-4" data-name="Layer 1">
      <path d="M368.3 0L200.8 521.4h173V238s2-74 66.3-87.7V0z" class="cls-5 cls-6 cls-7"/>
      <path d="M260.5 0L153 521.4h156.2V236s3.3-62.2 58.2-109.7V0z" class="cls-5 cls-8 cls-7"/>
      <path d="M146.7 521.4V237.8s-8-79.3 51-112.4L197.5 0H259v125.4c55.2 33 50.4 112.5 50.4 112.5v283.3l157.3-.4-.2-24L332 0H139.3L0 521.4" class="cls-5 cls-9 cls-7"/>
    </g>
  </g>
</svg>
