<svg xmlns="http://www.w3.org/2000/svg" id="svg2" width="100%" viewBox="0 0 950 620" version="1.2">
  <path id="taiwan" class="asia" d="M787.46,248.31l-3.54,2.7l-0.19,5.2l3.06,3.56l0.76-0.67L787.46,248.31L787.46,248.31z" />
  <path id="kyushu" class="asia" d="M803.23,216.42l-1.63,1.64l0.67,2.31l1.43,0.1l0.96,5.01l1.15,1.25l2.01-1.83l0.86-3.28l-2.49-3.56L803.23,216.42L803.23,216.42z" />
  <path id="shikoku" class="asia" d="M812.03,213.15l-2.77,2.6l-0.1,2.99l0.67,0.87l3.73-3.18l-0.29-3.18L812.03,213.15L812.03,213.15z" />
  <path id="honshu" class="asia" d="M808.2,206.98l-4.88,5.59l0.86,1.35l2.39,0.29l4.49-3.47l3.16-0.58l2.87,3.37l2.2-0.77l0.86-3.28l4.11-0.1l4.02-4.82l-2.1-8l-0.96-4.24l2.1-1.73l-4.78-7.22l-1.24,0.1l-2.58,2.89v2.41l1.15,1.35l0.38,6.36l-2.96,3.66l-1.72-1.06l-1.34,2.99l-0.29,2.79l1.05,1.64l-0.67,1.25l-2.2-1.83h-1.53l-1.34,0.77L808.2,206.98L808.2,206.98z" />
  <path id="hokkaido" class="asia" d="M816.43,163.44l-1.53,1.35l0.77,2.89l1.34,1.35l-0.1,4.43l-1.72,0.67l-1.34,2.99l3.92,5.39l2.58-0.87l0.48-1.35l-2.77-2.5l1.72-2.22l1.82,0.29l1.43,1.54l0.1-3.18l3.92-3.18l2.2-0.58l-1.82-3.08l-0.86-1.35l-1.43,0.96l-1.24,1.54l-2.68-0.58l-2.77-1.83L816.43,163.44L816.43,163.44z" />
  <path id="praslin" class="africa" d="M610.88 349.14l-1.83 1.23 1.37 2.15h1.83l-1.37-3.38z"/>
  <path id="mahe" class="africa" d="M611.64 354.5l-1.22 1.4.9 1.37 1.68.3.15-2.9-1.5-.16z"/>
  <path id="guadeloupe" class="americas" d="M276.6 283.37l-1.5.62.53 1.3 1.76-1.2-.4-.4-.5-.5z"/>
  <path id="dominica" class="americas" d="M279.07 284.88l-.88 1.87 1 1.42 1.3-1.15-1.5-2.14z"/>
  <path id="martinique" class="americas" d="M282.07 290.03L281 291l.8 1.6 1.5-.43-1.23-2.14z"/>
  <path id="st. lucia" class="americas" d="M281.98 294.03l-.7 1.5 1.14 1.25 1.5-.8-1.94-1.95z"/>
  <path id="st. vincent" class="americas" d="M282.07 297.85l-1.23.9.97 1.77 1.6-.9-1.3-1.77z"/>
  <path id="grenada" class="americas" d="M280.57 301.3l-1.15 1.16.44.7h1.4l.45-1.15-1.1-.7z"/>
  <path id="trinidad" class="americas" d="M282.24 304.78l-1.06.98-1.15.18v1.42l2.12 1.95.88-1.4.53-1.6-.18-1.3-1.14-.2z"/>
  <path id="puerto rico" class="americas" d="M271.05 281.06l-2.64-.9-2.1 1.34 1.1 1.24 3.6.53.1-2.2z"/>
  <path id="haiti-dominican border" class="americas" d="M250.87 275.38l-1.67 1.7 1.9.8.3 2.38-4.24.37.43 2.3 1.2.1.7-1.07 4.9.16.9 1.7 1.1-1.33 3.3-.9 2.9.6.3-1.8-5.3-3.5-3.4-1.3-3.6-.3z"/>
  <path id="domincan republic" class="americas" d="M263.1 280.44l-5.28-3.46-2.5-.85-.84 6 .88 1.7 1.15-1.34 3.4-.9 2.9.6.4-1.8z"/>
  <path id="haiti" class="americas" d="M250.86 275.38l3.44.36-.4 4.22-.35 2.22-4-.22-.72 1.07-1.23-.1-.44-2.3 4.23-.35-.3-2.4-2-.8 1.6-1.7z"/>
  <path id="cuba" class="americas" d="M220.85 266.92v1.27l5.32.1 2.5-1.5.4 1 5.22 1.2 4.6 4.2-1.1 1.4.2 1.6 3.8.9 3.8-1.8 1.7-1.8-2.5-1.3-13-7.6-4.6-.5-6.7 2.3z"/>
  <path id="jamaica" class="americas" d="M238.93 279.6l-3.48.87v.97l2.03 1.17h2.13l1.4-1.5-2-1.4z"/>
  <path id="gran canaria" class="europe" d="M409.54 253.92l-2.17.55 1.08 1.64h1.63l-.54-2.1z"/>
  <path id="kalimantan" d="M781.68 324.4l-2.3 8.68-12.54 4.23-3.75-4.4-1.9.5 3.4 13.2 5.1.6 6.8 2.6v2.6l3.1-.5 4.5-6.2v-5.1l2.5-5.1 2.8.6-3.4-7.1-.6-4.6-4 .4z"/>
  <path id="papua new guinea" d="M852.76 348.3l-.37 24.43 3.5-.2 4.6-5.4 3.9.2 2.5 2.23.8 6.9 7.9 4.2 2-.75v-2.5l-6.4-5.3-3.2-7.3 2.5-1.2-1.9-4-3.7-.1-1-4.3-9.8-6.6-1.7-.3z"/>
  <path id="mexico" class="americas" d="M137.5 225.43l4.82 15.2-2.25 1.27.25 3.02 4.25 3.27v6l5.25 5-2.25-14.9-3-9.9.75-6.8 2.5.2 1 2.2-1 5.8 13 25.4v9l10.5 12.3 11.5 5.3 4.75-2.8 6.75 5.5 4-4-1.75-4.5 5.75-1.8 1.75 1 1.75-1.8h2.75l5-8.8-2.5-2.3-9.75 2.3-2.25 6.5-5.75 1-6.75-2.8-3-9.6 2.27-12.1-4.64-2.9-2.2-11.6-1.86-.8-3.38 3.4-3.88-2.1-1.52-7.7-15.36-1-7.98-6-7.56.4z"/>
  <path id="estonia" class="europe" d="M517.77 143.66l-5.6-.2-3.55 2.17-.05 1.6 2.3 2.18 7.15 1.3-.25-6.9z"/>
  <path id="algeria" d="M473.88 227.5l-4.08-1.38-16.98 3.2-3.7 2.8 2.26 11.67-6.75.2-4.06 6.5-9.67 2.3.03 4.7 31.85 24.4 5.43.4 18.2-14.2-1.8-2.3-3.4-.5-2-3.4v-14l-1.3-1.4.3-3.7-3.6-3.7-.4-3.9 1.6-1.2-.7-4.1-.9-2.8z"/>
  <path id="morocco" d="M448.3 232.28h-11.56l-2.26 5.02-5.2 2.5-4.3 11.65-8.4 5.02-11.76 19.4 11.55-.24.45-5.7h2.94v-7.76h10.2l.22-10.04 9.74-2.28 4.08-6.62 6.34-.23-2.05-10.72z"/>
  <path id="mauretania" d="M404.9 276.66l2.18 2.85-.45 12.4 3.17-2.3 2.26-.4 3.17 1.2 3.62 5 3.4-2.3 16.53-.2-4.08-27.6h4.38l-8.16-6.2v4H420.6l-.05 7.8h-2.97l-.38 5.7-12.3.3z"/>
  <path id="senegal" d="M410.12 290.32l-3.94 2.86-.9 1.6-.28 1.6 1.45 1.04 4.84-.07 3.1-.84.3 1.6-.3 2 2.9 1.5.6.7 3.9.2.1-1.7-3.6-4.3-4-5.4-2.5-1-1.9.5z"/>
  <path id="gambia" d="M406.9 298.34l-.14 1.1 6.92-.1.35-1.02-.15-1.04-2 .8-5 .26z"/>
  <path id="casamance" d="M406.8 300.22l1.23 3 .7-1.85 8.4.88-3.64-1.87-6.7-.16z"/>
  <path id="bissau" d="M408.6 304.53l1.4 2.77 3.93-3.38.04-1.04-4.63-.67-.74 2.4z"/>
  <path id="guinee" d="M410.42 307.94l3.04 4.68 3.96-3.44 4.06-.18 3.38 4.5 2.87 1.88 1.08-2.1 1-.54v-4.62l-1.9-5.48-5.8.65-7.2-.6v1.8l-4.2 3.3z"/>
  <path id="sierra leone" d="M413.93 313.13l5.65 5.46 4.03-4.9-2.5-4-3.4.3-3.7 3z"/>
  <path id="liberia" d="M420.17 319.2l10.98 7.33-.26-5.56-3.4-3.9-3.3-2.88-4.2 5z"/>
  <path id="ivoire" d="M432.07 326.75l4.28-3.03 5.32-.93 5.43 1.1-2.77-4.2-.8-2.6.8-7.6-4.85.2-2.2-2.1-4.62.1-2.2.3.23 5.1-1.2.4-1.4 2.5 3.6 4.2.3 6.1z"/>
  <path id="mali" d="M419.46 295.84l3.08-2.1 17.12-.1-3.96-27.55 4.52-.2 21.87 16.7 2.9.4-1.1 9.3-13.8 1.2-10.6 7.9-2 5.4-7.4.3-1.9-5.4-5.7.4.2-1.8-3.5-4.7z"/>
  <path id="burkina" d="M450.6 294.28l3.63-.3 5.97 8.45-5.54 4.18-4-1-5.4.1-.87 3.2-4.6.3-1.3-1.7 1.6-5.1 10.3-7.9z"/>
  <path id="niger" d="M460.9 302l2.54-.06 2.3-3.45 3.86-.7 4.1 2.5 8.78.2 6.78-2.8 2.55-2.2.2-2.9 4.8-4.8 1.3-10.5-3.1-6.6-7.9-2-18.4 14.3-2.6-.2-1.1 9.9-9.4.9 5.6 8z"/>
  <path id="ghana" d="M444.34 317.05l1.12 2.63 2.92 4.58 1.62-.06 4.42-2.5-.3-14.3-3.43-1-4.8.13-1.6 10.52z"/>
  <path id="togo" d="M455.22 321.25l2.68-1.57-.06-10.35-1.74-2.82-1.12 1 .24 13.8z"/>
  <path id="benin" class="africa" d="M458.7 319.5h2.13l.12-6.03 2.68-3.9-.12-6.76h-2.4l-4.1 3.3 1.8 3.4.1 10.2z"/>
  <path id="nigeria" class="africa" d="M461.57 319.37l3.92.2 4.7 5.26 2.3.63 1.8-.88 2.7-.38.9-3.82 3.7-2.45 4-.2 7.4-13.6-.1-3.07-3.4-2.63-6.9 3-9.2-.12-4.4-2.7-3.1.7-1.7 2.8-.1 8-2.6 3.7-.3 5.7z"/>
  <path id="tunisia" d="M474.9 227.33l5.54-2.23 1.82 1.18.07 1.44-.85 1.1.13 1.98.9.46v3.54l-1 1.64.2 1.05 3.7 1.3-3 4.6-1.1-.1-.2 3.7-1.3.2-1.1-1 .3-3.8-3.6-3.6-.4-3.1 1.8-1.4-1.5-7.2z"/>
  <path id="libya" d="M480.05 248.03l1.56-.26.5-3.6h.8l3.2-5.24 7.9 2.3 2.2 3.33 7.8 3.54 4.1-1.7-.4-1.7-1.7-1.7.2-1.18 2.9-2.42h5.7l2.2 2.88 4.6.66.6 36.9-3.4-.14-20.4-10.62-2.2 1.25-8.4-2.1-2.2-3-3.3-.47-1.7-3 .1-13.73z"/>
  <path id="egypt" d="M521.93 243.06l2.67.07 5.2 1.44 2.47.07 3.06-2.56h1.43l2.6 1.44h3.3l.58-.04 2.08 5.98.6 1.93.54 2.8-.98.7-1.7-.9-1.94-6.4-1.76-.2-.13 2.2 1.17 3.7 9.37 11.6.2 5-2.8 3.1-25.7-.3-.4-30z"/>
  <path id="chad" d="M492.8 296l.12-2.95 4.74-4.6 1.27-11.33-3.16-6.04 2.2-1.13 21.4 11.15-.12 10.94-3.77 3.2v5.65l2.47 4.7h-4.36l-7.3 7.1-.2 2.1-5.3-.1-.1.9-3.1-.4-2.1-3.9-1.6-.8.2-1.2 1.9-1.5v-7l-2.7-.4-3.3-2.5 2.5-2.2z"/>
  <path id="south_sudan" d="M549.08 310.34l-2.94-4.94-.3-3.6-.72.14-.2 1.1-3.84 5.64-3.08-1.47-3.07 2.6-6.35-.3-2.8-2.2-4.05 2.1-.15 1.4-1.23.8 12.32 12.7 6.7.4 1 1.5 9.6.2.07-2.1.82-1.5 3.2-.4-4-5.8h-2.93l-.75-4.1 2.36-1 .34-.7z"/>
  <path id="sudan" d="M552 270.6l-3.7 3.73-25.8-.23.3 6.57-2.47-.07-.18 11.83-3.73 3.2-.15 4.95 2.7 5.3 2.94 1.75v.4l4-2.04 3.1 2.4 5.7.3 3.3-2.8 2.9 1.4 3.3-4.8.3-1.6 2.5-.5.4 4.5 2.5 4.1 6-12.9v-7.9l4.4-5.2-8-12.7z"/>
  <path id="cameroon" class="africa" d="M477.82 324.28l3.22 2.96-.23 4.58 17.7-.4 1.5-1.63-5-5.5-.7-2 3.2-6.1-2.2-4-1.8-1v-2l2.2-1.4.1-6.3-1.7-.2v3.3l-7.4 13.8-4.5.2-3.1 2.1-.9 3.3z"/>
  <path id="eritrea" d="M556.7 294.7l-.24-5.9 3.96-4.6 1.07.8 1.9 6.53 9.3 6.97-1.7 2.1-6.9-5.9h-7.6z"/>
  <path id="djibouti" d="M571.48 301.54l-.57 3.36 4-.06.1-4.94-1.4-.9-2 2.54z"/>
  <path id="ethiopia" d="M549.5 311.76l7.27-16.2 7.23.04 6.4 5.57-.44 4.6h4.97l.5 2.75 8.05 4.8 4.96.26L579 323.7l-12.94 4h-3.2l-5.73-4.88-2.26-.95-4.38-6.45-2.9.04-.4-2.96 2.2-.74z"/>
  <path id="somaliland" d="M575.74 305.04l4.08 2.78 1.2-.06 10.14-3.48 1.15 3.7-.8 3.14-2.2 1.74-5.4-.35-7.8-4.8-.2-2.6z"/>
  <path id="soqotra" d="M599.62 299.65l2.13 2.38 2.88-1.74 1.04-.4-1.32-1.3-2.53.7-2.2.2z"/>
  <path id="somalia" d="M591.97 304.05l4.37-1.68 1.55.93-.2 3.88-4.1 11.48-21.8 23.36-2.6-1.74-.2-9.86 3.3-3.77 6.9-2.15 10.2-10.78 2.6-2.38.7-3.48-1.1-3.8z"/>
  <path id="centrafrique" d="M495.66 324.05l4.66 5.04 1.84-2.4 2.93.1.6-2.3 2.9-1.8 5.9 4.1 3.4-3.4 13.4.6-12.4-12.8 1.6-1.1.2-2.3-2.9-1.4h-4.1L507 313l-.22 2.7-5.3-.2-.18 1.1-3.5-.34-3.1 5.9.6 1.62z"/>
  <path id="gabon" d="M486.4 332.63l-.13 2.5-5.64-.13-3.45 6.67 8.1 8.87 2.02-1.68-.06-1.74-1.38-.64v-1.22l3.1-1.97 2.77 2h3.05l-.06-10.5-4.83-.2-.1-2.2-3.5.1z"/>
  <path id="equatorial guinea" d="M481 332.7l-.07 1.38 4.54.23-.06-1.5H481z"/>
  <path id="congo" d="M491 332.52l-.06 1.45 4.78.12.17 12.4-4.4-.2-2.6-2-2 1.1-.1.5 1 .5.3 2.5-2.7 2.3.5 1.2 3-2.4h1.4l.4 1.4 1.9.8 6.1-5.2-.1-3.8 1.2-3.1 3.9-2.9 1-9.8H502l-3.2 4.4-8.1.3z"/>
  <path id="cabinda" d="M486.55 353.23l1.74 2.26 2.2-2.2-.7-2.2-.6-.1-2.8 2.1z"/>
  <path id="drc" d="M489.38 355.7l10.3-.17 2.1 2.97-.08 2.2.77.7h5.12l1.4-2.9h2.1l.8.86 2.8-.08.8 10.08 4.9.16v.78l13.3 6 .6 1.18h2.8l-.4-4.22-5.1-2.42.3-3.2 2.2-5.08 4.9-.16-4.3-14.14.1-6 6.7-10.55v-1.4l-1-.5V327l-1.3-.1-1.3-1.6-20.3-.9-3.7 3.6-6.1-4-2.2 1.3-1.54 13.1-3.8 3-1.2 2.7.2 3.9-7 5.7-1.9-.8.3 1.1-2.1 2z"/>
  <path id="rwanda" d="M537.82 339.9l2.8 2.6-.1 2.76-4.37.1v-3.07l1.67-2.4z"/>
  <path id="burundi" d="M536.2 346.2l4.28-.08-1.1 3.74-1.1.94H537l-.95-2.53.18-2.06z"/>
  <path id="uganda" d="M538.3 339.1l3.03 2.83 1.9-1.2 5.14-.85.88.1.33-1.96 2.9-6.1-2.44-5.08-7.9.05-.06 2 1.06 1-.16 2.1-4.68 7z"/>
  <path id="kenya" d="M550.83 326.52l2.66 5.2-3.2 6.68-.5 2.03 15.9 9.85 4.9-7.76-2.5-2.03-.1-10.3 3.1-3.4-5 1.6h-3.8l-5.9-5-1.9-.8-3.5.3-.6 1v2.4z"/>
  <path id="tanzania" d="M550.57 371.42l17.47-2.14-3.93-7.6-.2-7.28 1.3-3.48-16.6-10.44-5.2.86-1.8 1.34-.1 3.05-1.1 4.23-1.2 1.45-1.7.2 3.4 11.6 5.5 2.6 3.8.1.8 5.6z"/>
  <path id="zambia" d="M514.55 384.7l3.17 4.4 4.9.3 1.75.96 5.14.06 4.5-6.2 12.4-5.55 1.1-4.88-1.4-7-6.4-3.7-4.3.3-2.1 4.7.1 2.1 5.1 2.4.3 5.3-4.4.2-1-1.8-12.1-5.2-.4 4-5.7.2-.2 9.1z"/>
  <path id="angola" d="M488.62 356.7l3.4 12.74-.07 4.02-5 5.36-.74 8.7 19.2.18 6.3 2.26 5.2-.67-3-3.8v-10.7l5.9-.3v-4.2l-4.7-.2-.9-9.9H512l-1.1-1h-1.16l-1.6 3H502l-1.4-1.5.4-2-1.65-2.5-10.73.1z"/>
  <path id="malawi" d="M547.16 379.4l3.1 3.25-.05 4.16.6 1.8 4.2-4.4-.5-5.6-2.2-1.7-2-9.9-3.4-.1 1.6 7.2-1.2 5.6z"/>
  <path id="mozambique" d="M541.17 413.28l2.7 2.23 6.33-3.8 1.02-5.7v-9.4l10.17-8.3 1.7.1 6.1-5.9-1-12.2-16.3 2.1.4 3.7 2.8 2.2.6 6.7-5.5 5.4-1.3-3 .2-4-3.2-3.4-7.8 3.6 7.2 3.7.2 10.8-4.8 7.1.1 8.6z"/>
  <path id="zimbabwe" d="M524.66 392.3l8.97 10.13 6.88 1.75 4.7-7.23-.3-9.58-7.5-3.86-2.8 1.3-4.2 6.4h-5.8l.2 1.2z"/>
  <path id="namibia" d="M496.55 421.96l3.35.24 1.97 2 4.67.05 1.14-13.26v-8.7l3-.6 1.13-9.1 7.6-.3 2.7-2.3-4.5-.2-6.1.8-6.6-2.4h-18.7l.5 5.3 6.3 9.1-1.1 4.7v2.5l4.8 11.9z"/>
  <path id="botswana" d="M508.5 411.23l2.16.66-.3 6.1 2.2.3 5.1-4.6 6.1.6 1.6-4.1 7.73-7.1-9.3-10.7-.1-1.8-1.1-.3-2.8 2.6-7.3.1-1.1 9.1-2.9.7-.2 8.1z"/>
  <path id="swaziland" d="M540.87 414l-2.5.42-1.1 2.95 1.93 1.75h2.33l1.97-2.83-2.63-2.3z"/>
  <path id="lesotho" d="M527.4 425.4l3.06-2.36 1.44.06 1.74 2.17-.18 2.17-2.93 1.08v.84l-3.23-.18-.78-2.35.9-1.44z"/>
  <path id="south africa" d="M534.16 403.63l-7.9 7.3-1.88 4.5-6.26-.77-5.2 4.63-3.47-.4.28-6.4-1.23-.5-.86 13.1-6.14-.1-1.85-2.2-2.7-.1 2.46 7.1 4.5 4.1-3.1 3.6 2.1 4.6 4.8 1.8 3.8-3.2 10.8.1.8-1 4.8-.8 16.1-16v-5.1l-1.7 2.2h-2.6l-3.1-2.7 1.6-4 2.8-.6-.2-8.2-6.1-1.4zm-3.8 18.5l1.52-.06 2.45 2.66-.07 3.08-2.87 1.5-.2 1-4.4.1-1.4-3.3 1.2-2.4 3.6-2.4z"/>
  <path id="greenland" d="M321.13 50.07l-1.36 2.17 2.45 2.45-1.1 2.4 3.55 4.6 4.35-1.4 5.7-.6 6.54 7 4.35 11.7-3.5 7.3 4.9-.8 2.7 1.6.3 3.5-6 .3 3.3 3.2 4.1.8-8.9 12-1.1 7.3 1.9 6-1.3 3.5 2.5 7.6 4.6 5.2 1.4-.3 3-.9.3 4.3 1.9 2.7 3.5-.3 2.7-10.1 8.2-10.1 12.2-4.9 7.6-9.5 3.6 1.6h7.4l6-6 7.4-3 .8-4.6-4.6-4.1-4.2-1-2.1-5.7 5.2-3 8.2 4.3 2.78-3-4.4-2.5 9.2-12.5-1.6-5.5-4.37-.3 1.7-4.9 5.5-2.5 11.2-9.8-3.2-3.6-12.5 1.1-6.5 6.5 3.8-8.5-4.32-1.1-2.42 4.3-3.5-3-9.8 1.1 2.76-4.4 16-.6-4.1-5.5-17.6-3-7.1 1.1.3 3.5-7.4-2.5.3-2.5-5.1 1.1-1.1 2.7 5.5 1.9-5.7 4.1-4.1-4.6-5.7-1.6-.8 4.3h-6l-2.2-4.6-8.94-1.4-4.9 2.4-.22 3.24-6.2-.8-3.8 1.65.3 3.8v2l-7.3 1.5-3.3-2.13-2.2 3.6 3.2 3.6 6.8-.8.5 2.2-5.2 2.43-4.6-2.2z"/>
  <path id="disko" d="M342.9 92.5l1.62 2.44-.82 3h-1.63l-2.18-2.46.5-1.9 2.4-1.1z"/>
  <path id="milne" d="M410.87 85.7l4.62 1.35-.3 3.8-4.9-2.44-1.1-1.3 1.6-1.3z"/>
  <path id="australia" d="M761.17 427.98l-.35 25.38-3.9 2.86-.35 2.5 5.32 3.57 13.1-2.5h6.7l2.5-3.6 14.9-2.9 10.6 3.2-.7 4.3 1.4 4.3 8.1-1.5.3 2.1-5.4 3.9 1.7 1.4 3.9-1.5-1.1 11.8 7.4 5.7 4.2-1.4 2.1 2.1 12.4-1.8 11.7-19 4.2-1.1 8.5-15.7 2.1-13.6-5.4-6.8 2.1-1.4L863 415l-4.6-3.2.7-17.9-4.24-3.3-1.06-10h-2l-7.1 23.5-3.9.4-8.9-9 5-13.28-9.2-1.8-10.3 2.9-2.86 8.2-4.6 1.02-.3-5.7-18.7 11.5.3 4.3-2.83 3.9h-7.1L766.1 413l-5.34 14.4z"/>
  <path id="tasmania" d="M825.74 496.26l-1.77 7.15.35 5 5.32-.3 6.03-9.3-9.93-2.5z"/>
  <path id="new zealand north island" d="M913.02 481.96l1.06 11.8-1.42 5.36-5.32 3.93.35 4.65v5l1.4 1.8 14.5-12.52v-2.86H920l-4.97-16.8-2.1-.36z"/>
  <path id="new zealand south island" d="M902.38 507.7l2.84 5.36-7.8 7.5-.72 3.94-5.32.7-8.87 8.23-8.1-3.93-.7-2.86 14.9-6.43 13.9-12.5z"/>
  <path id="new caledonia" d="M906.64 420.47l-.35 1.8 4.6 6.42 2.4 1 .3-2.5-7.1-6.8z"/>
  <path id="sumatra" d="M722.48 317.57l-.28 2.28 6.8 11.4h1.97l14.15 23.68 5.66.57 2.83-8.27-4.5-2.85-.8-4.56-25.7-22.25z"/>
  <path id="east malaysia" class="asia" d="M764.14 332.92l3.02 3.5 11.58-4.02 2.3-8.84 5.15-.37 4.7-3.5-6.1-4.5-1.4-2.5-3.1 5.5 1.1 3.2-1.9 2.6-3.5-.9-8.4 6.1.2 3.6-3.9-.3z"/>
  <path id="brunei" d="M779.77 319.25l-2.88 3.5 2.3.73 1.3-1.86-.8-2.37z"/>
  <path id="sulawesi" d="M789.53 349.1l2.26 2.78-1.5 4.16v.8h3.3l1.2-10.4 1.1.3 1.9 9.5 1.8.5 1.7-4.07-1.8-6.14-1.5-2.67 4.6-3.37-1.1-1.5-4.4 2.8H796l-2.16-3.2.7-1.4 3.65-1.8 5.5 1.6 1.6-.1 4.1-3.9-1.7-1.7-3.9 3h-2.5l-3.8-1.8-2.7.1-3 4.7-1.9 8.2-1 3.3z"/>
  <path id="maluku" d="M814.2 330.5l-1.88 4.55 2.95 3.86h.98l1.28-2.5.7-.9-1.3-1.4-1.86-.7-.88-2.8z"/>
  <path id="seram" d="M820 345.45l-4.04.9-1.18 1.28.98 1.68 2.65-.9 1.7-1 2.5 2 1.1-.9-1.9-2.4-1.6-.6z"/>
  <path id="java" d="M753.17 358.32l-2.75 1.88.6 1.58 8.74 1.98 4.42.8 1.87 1.97 5 .4 2.37 1.98 2.16-.5 1.97-1.7-3.64-1.7-3.1-2.6-8.1-2-9.4-1.9z"/>
  <path id="haiti-dominican border" d="M250.87 275.38l-1.67 1.7 1.9.8.3 2.38-4.24.37.43 2.3 1.2.1.7-1.07 4.9.16.9 1.7 1.1-1.33 3.3-.9 2.9.6.3-1.8-5.3-3.5-3.4-1.3-3.6-.3z"/>
  <path id="domincan republic" d="M263.1 280.44l-5.28-3.46-2.5-.85-.84 6 .88 1.7 1.15-1.34 3.4-.9 2.9.6.4-1.8z"/>
  <path id="haiti" d="M250.86 275.38l3.44.36-.4 4.22-.35 2.22-4-.22-.72 1.07-1.23-.1-.44-2.3 4.23-.35-.3-2.4-2-.8 1.6-1.7z"/>
  <path id="falklands west" d="M307.95 508.18l-2.63-.3-2.62 1.77 1.9 2.06 3.35-3.5z"/>
  <path id="falklands east" d="M310.57 506.86l-.87 2.8-2.48 2.2.15.72 4.23-1.62 1.75-2.2-2.78-1.9z"/>
  <path id="iceland" class="europe" d="M406.36 117.3l-1.96-1.1-2.64 1.67-2.27 2.1v1.17l2.9.37-.2 2.1-1.1 1.1.2.7 2.9.2v3.4l4.2.8 2.5 1.4 2.8.1 4.8-2.4 3.7-4.9v-3.3l-2.3-1.9-1.9-1.6-.9.6-1.3 1.7-1.5-.2-1.5-1.6-1.9.2-2.8 2.3-1.7 1.8-.9-.8-.1-1.9.9-.6-.7-1z"/>
  <path id="spitsbergen" d="M488.26 53.96l-1.65-1.66-3.6 1.78h-6.7L475.2 58l3.77 3.33 1.65-.24 2.3-4.1 2 1.4-1.4 2.8-.7 4.1 1.64 2.6L488 62l4.6-5.6-1.77-1.5-2.57-1.07z"/>
  <path id="nordaustlandet" d="M490.26 46.83l-2.95 2.73 1.8 2.73h3.2l1.3 1.7 3.9 2 4.5-2.6 3.1-2.6-1-2.2-3.1-1.8-2.2 2-1.5-1.9-1.1.1-1.5 3.3-2.2-2.3-.2-1.6-1.6.1z"/>
  <path id="edgeoya" d="M496.98 59.07l-2.36 2.14-2 1.6.94 1.7 1.9.6 3.06-1.4 1.42-1.8-1.3-2.1-1.66-.6z"/>
  <path id="prince george" d="M547.82 38.8l1.72.68-1.2 2.08v2.95l-2.6 1.6H543l-1.55-1.9.17-2.1 1.2-1.5h2.42l2.58-1.7z"/>
  <path id="salisbury" d="M554.36 36.88v2.08l1.72 1.4 2.4-.18 2.08-1.9v-1.4h-1.9l-1.54.52-1.2-1.4-1.56.88z"/>
  <path id="wilczek" d="M564.18 37.06l1.2 2.6 2.42.17 1.72-.7-.86-2.42-2.24-.5-2.24.9z"/>
  <path id="bell" d="M574 33.6l-1.9-.36-1.72 1.74.86 1.56.52 2.43 2.24-1.73.52-1.9-.53-1.75z"/>
  <path id="novaya zemlya north" d="M584.5 51.98l-.53 2.43-3.97 3.5-8.43 1.9-6.9 11.5-1.2 3.3 6.9 1.8 1.02-4.1 2-6.4 5.3-2.7 4.4-3.5 3.2-1.4h1.7v-4.7l-3.8-1.4z"/>
  <path id="novaya zemlya south" d="M562.28 77.3l4.65.53 1.55 5.38 3.96 4.2-1.38 2.8h-2.4l-2.25-2.6-4.9-.1-2-2.8v-1.9l3.1-.8-.1-4.5z"/>
  <path id="komsomolets" d="M634.95 18.15l-2.24-1.4h-2.5l-.5 1.57-2.7 1.56-2 .7-.3 2.07 4.8.35 5.7-4.85z"/>
  <path id="october" d="M640.28 18.67l-1.2 2.6-2.42-.17-3.8 2.78-1.02 3.47h2.4l1.4-2.26 3.26 2.4 3.1-1.4 2.24-1.9-.86-3-1.2-2.1-1.9-.6z"/>
  <path id="bolshevik" d="M645.28 20.58l1.2 4.86 1.9 4.5 2.07-3.63 3.96-.8v-2.6l-2.5-1.9-6.5-.3z"/>
  <path id="kotelny" d="M739.76 12.8l2.7 2.26 1.9-.8.56-3.16L741 8.4l-2.58 1.7-6.28.56v2.83l-6.62.1v4.6l7.74 5.7 2.02-1.5-.45-4.1 4.94-1.3-1-1.9-1.8-1.9 2.8-.7z"/>
  <path id="novaya sibir" d="M746.94 10.1l1.8 3.38 6.95-.8 1.9-2.48-.5-2.15-1.9-.8-1.8 1.37-5.2 1.13-1.4.34z"/>
  <path id="lyakhovsky" d="M746.5 23.3l-3.5-.9-2 2.16-.9 2.94 4.7-.45 3.6-1.8-1.9-1.94z"/>
  <path id="wrangel" d="M836.68 3.76l-2.92-.9-3.36 1.24-1.68 2.5 2.13 2.82 5.6-2.5 1.13-1.23-.9-2z"/>
  <path id="sri lanka" d="M680.54 308.05l.25 2.72.2 1.98-1.5.25.7 4.45 2.2 1.24 3.4-2-1-4.7.2-1.8-3.2-3-1.5.7z"/>
  <path id="cuba" d="M220.85 266.92v1.27l5.32.1 2.5-1.5.4 1 5.22 1.2 4.6 4.2-1.1 1.4.2 1.6 3.8.9 3.8-1.8 1.7-1.8-2.5-1.3-13-7.6-4.6-.5-6.7 2.3z"/>
  <path id="bimini" d="M239.6 259.13l-1.25-.4-.1 2.44 1.55 1.56 1.06-1.56-1.25-2.04z"/>
  <path id="andros" d="M242.12 262.93l-1.74.97 1.64 2.34.87-1.17-.8-2.14z"/>
  <path id="inagua" d="M247.73 264.68l-1.84-.1.1 1.17 1.3 1.95 1.1-1.27-.9-1.75z"/>
  <path id="eleuthera" d="M246.86 262.35l-3-1.27-.58-3.02 1.16-.5 1.16 2.35 1.16.9.1 1.6z"/>
  <path id="grand bahama" d="M243.96 256.2l-1.55-.38-.2-1.95-1.6-.58 1.1-1.1 2 .7 1.5.8-.9 2.4z"/>
  <path id="jamaica" d="M238.93 279.6l-3.48.87v.97l2.03 1.17h2.13l1.4-1.5-2-1.4z"/>
  <path id="irian jaya" d="M831.93 339.34l-4.17.47-2.68 2 1.1 2.3 4.55.9v.9l-2.87 2.4 1.4 4.9 1.38.1 1.2-4.7h2.22l.94 4.6 10.8 9 .3 7 3.7 4 1.6-.1.32-24.7-6.3-4.4-5.9 4-2.14 1.3-3.53-2.2-.1-7.1-1.94-.2z"/>
  <path id="alaska-westcopy" d="M93.1 44.9l-8.38 1.98 1.73 9.45 9.13 2.5.5 1.98-13.58 4.3-7.65 12.7 2.7 13.5L82 94.2l3.46-3.23 1 2-4.2 4.96-16.3 7.46-10.37 2.5-.3 3.7 23.9-7 9.8-2.8 9.1-11.2 10.2-6.6-5.2 8.7 5.7.7 9.6-4.3 1.7 7 6.6 1.5 6.9 6.7.5 5-1 1.2 1.2 4.7h1.7l.2-8h1.9l.5 19.6 4.9-4.2-3.5-20.4h-5l-5.7-7.2 27.9-47.3-27.7-21.6-30.6 6-1.2 9.4 6.6 4-2.5 6.5-8.8-7.2z"/>
  <path id="banks" d="M203.73 35.9l.22 4-7.98 8.28 2 6.7 5.76-1.56 3.33-4.92 8.42-3.13 6.87-.45-5.32-5.8-2.66 2-2-.67-1.1-2.46-2.45-2.5-5.1.4z"/>
  <path id="prince patrick" d="M214.15 24.05l-1.77 3.13 8.65 3.13 3.1-4.6 1.33 3.2h2.22l4.2-4.7-5.1-1.3-2-1.5-2.65 2.7-7.98.2z"/>
  <path id="eglinton" d="M229.23 30.3l-6.87 2.9v2.24l8.87 3.35-2 2.2 1.33 2.9 5.54-2.5h4.66l2.22 3.5 3.77-3.8-.9-3.6-3.1 1.1-.43-4.5 1.55-2.7h-1.55l-2.44 1.6-1.1.9.66 3.1-1.77 1.3L235 38l-.6-4-5.1-4z"/>
  <path id="mackenzie king" d="M238.32 23.38l-.67 2.23 4.2 2.1 3.1-1.8-.2-1.3-6.43-1.1z"/>
  <path id="king christian" d="M241.64 19.58l-3.1 1.12.22 1.56 6.87-.45-.22-1.5-3.7-.6z"/>
  <path id="ellef ringnes" d="M256.5 23.38l-.44 1.56-1.1 1.56v2.23l4.2-.67 4.43 3.8h1.5v-3.8l-4.5-4.92-4.2.24z"/>
  <path id="amund ringnes" d="M267.8 27.85l1.78 2-1.55 2.7 1.1 2.9 4.9-2.7v-2l-2.9-3.35-3.32.45z"/>
  <path id="axel heiberg" d="M274.24 22.7l.22 3.58h6l1.54 1.34-.22 1.56-5.32.67 3.77 5.14 5.1.8 7.1-3.2-10.2-15.4-3.1 2 .2 2.7-3.54-1.4-1.6 2z"/>
  <path id="victoria" d="M222.58 47.96l-8.42 2.23-4.88 4.2.44 4.7 8.87 2.6-2 4.4-6.5-4-1.8 3.3 4.2 2.9-.2 4.7 6.4 1.8 7.7-.5 1.4-2.4 5.7 6.4 4-1.3.6-4.5 2.9 2 .4-4.5-3.6-2.3.2-14.1-3.1-2.5-3.3 4.4-9.4-8.1z"/>
  <path id="prince of wales" d="M249.63 57.8l-2.88-1.35-1.55 2 3.1 4.93.22 4.7 6.65-4.03v-5.8l2.44-2.47-2.4-1.8h-4l-1.5 3.8z"/>
  <path id="prescott" d="M263.82 55.78l-4.66 3.8 1.1 4.7h2.9l1.32-2.47 2 2.1 2-.2 5.32-4.4-9.98-3.3z"/>
  <path id="cornwallis" d="M263.37 48.4l-1.1 2.23 4.87 1.8 1.33-2.02-5.1-2z"/>
  <path id="bathurst" d="M260.5 39.9l-4.9.68-2.87 2.68 5.32.22-1.55 4.02 1.1 1.8 1.56-.23 3.77-6.03-2.44-3.13z"/>
  <path id="devon" d="M268.92 38.35l-2.66.9.44 3.56 4.43 2.9.22 2.3-1.33 1.4.67 4.5 17 5.6 4.6 1.6 4.6-4-5.6-4.4-5.1 1.4-7.1-.7-2.7-2.7-.6-7.5-4.5-2.2-2.7-2.4z"/>
  <path id="baffin" d="M282.88 61.6l-4.88-.46-5.76 2.23-3.1 4.24.9 11.7 9.52.5 9.1 4.5 6.42 7.4 4.88-.2-1.33 7-4.43 7.4-4.88 2.3-3.55-.6L284 106l-2.66 3.57 1.1 3.58 3.78.2 4.66-2.23 4 10.3 9.97 6.5 6.87-8.7-5.76-9.4 3.33-3.8 4.6 7.86 8.4-7.35-1.6-3.34-5.8 1.8-4-11 3.8-6.3-7.6-8.1-4.2 2.9-4-8.7-8.5 1.1-2.2-10.5-6.9 4.7-.7 5.8H277l.44-5.2 5.27-7.8z"/>
  <path id="bylot" d="M292.86 65.6l-1.77 1.8 1.5 2.46 7.3.9-4.7-4.93-2.5-.22z"/>
  <path id="ellesmere" d="M285.77 40.36v2l-4.88 1.13 1.3 2.2 5.5 2.2 6.2.6 4.4 3.1 4.4-2.5-3.1-3.2h4l2.4-2.7 6-.9V41l-3.3-2.2.4-2.44 9.3 1.56 13.7-5.35-5.1-1.55 1.3-1.8H339l1.77-1.8-21.5-7.6-5.1-1.8-5.5 4.04-6.2-5.16-3.35-.2-.67 4.2-4.2-3.8-4.9 1.5.9 2.47 7.3 1.6-.47 3.54 4 2.5 9.8-2.4.2 3.3-7.95 3.8-4.86-3.8-4.46.5 4.5 6.3-2.2 1.1-3.3-2.9-2.5 1.6 2.2 4.2h3.8l-.9 4-3.1-.5-4-4.2-2.6.5z"/>
  <path id="southhampton" d="M266 101.85l-4.22 5.32-.26 5.86 3.7-2.13h4.5l3.16 2.93 2.9-2.4-9.77-9.58z"/>
  <path id="newfoundland" d="M317.52 171.05l-10.57 10.12 1.06 2.4 13 4.8 1.9-3.2-1-5.32-4.2.53-2.3-2.66 4-4-1.5-2.67z"/>
  <path id="canada" class="americas" d="M158.22 48.66l2 3 1 4.03 4.97 1.2 3.4-3.8 3 1.5 8.4.7 6-2.5 1 8.2h3.5v-3.5l3.5.2 8.7 10.3 5.7 3.5-3 4.7 1.2 1.2L219 80l.24 5.03 3 .5L223 78l4.7-1.24 3.5 5.27 7.46 3.5 3.74.76 2.5-3 .25-4.8 4.48-2.8 1.5 4-4 7 .5 3.5 2.24-3.5 4.48-4.1.25-5.3-2.48-4 .75-3.3 5.98-3 2.74 2 .5 17.5 4.2-3.8 2.5 1.5-3.5 6 4.5 1 6.4-10.1 5.5 5.7-2.3 10.3-5.5 3-5.3-2.5-9.5 2 1 3.3-2.5 4-7.7 1.7-8.8 6.8-7.7 10.3-1 3.2 5.2 2 2 5 7.2 7.3 11.4 5-2.5 11.5-.3 3.2 3 2 4-5.3.5-10 6.2-.3 3-5.8.5-8.8 8-15.6 9.9 3.5 5.2 7.3-2.3 7.3 4 2.2 9.7-6.5 2.8 17.8 9 10.8.2 5.5-10 2.5-4.7 5-9.9-2.3-5-.3-8.7 6.8 5.2-1.28 6.4-1.3 1.2 1.5-1.8 5.5.3 5.1 3 2 3-.7 1.5-2.2h2l-3.28 6-6.25.3-2.7 4H286l-1-3 5-5.07-6 2-.28-8.5-1.7-1-5.2 2.25-.5 4.2h-11.9l-10.2 7.04-13.6 5-1.5-2 6.9-10.3-3.95-3.8-2.5-4.8-5.06-3.87-5.4-.5-9.7-6.9-70.4-11.3-1.2-4.8-6.5-6v-5l1-4.5-.5-2.5-2.5-2.54-.5-4.03 6.5-4.5-4-21.53-5.5-.26-4.9-6.6 27.4-46.5z"/>
  <path id="usa" d="M148.76 158.34l-1 4.02-3.5-2.26h-1.73l-1 4.27-12.2 27.36 3.23 23.84 4 2 .74 6.54h8.22l7.97 6.1 15.6 1.5 1.7 8.1 2.5 1.8 3.5-3.5 2.7 1.3 2.5 11.5 4.2 2.8 3.5-6.5 10.7-7.7 7 3.3 6 .5.2-3.7 12.4.3 2.5 2.8.5 6.3-1.5 3.5 1.7 6.1h3.8l3.7-5.8-1.5-2.7-1.5-6 2.2-6.7 10.2-8.8 7.7-2.2-1-7.3 10.7-11.52 10.7-1.8-1.7-6 10.4-6v-8l-1-.5-3.7 1.2-.5 4.9-12.4.17-9.8 6.5-15.3 5-2.4-3 6.9-10.5-3.4-3.3-2.3-4.4-4.8-3.9-5.3-.43-9.9-6.7-70.6-11.6z"/>
  <path id="haida gwaii" d="M133.83 128.4l-1.7 3.27.6 2.3 1.1.7-.26.94-1.2.4.35 3.5 1.28 1.3 1.02-1.1-1.28-3.3.76-2.6 1.87-2.5L135 129l-1.1-.35z"/>
  <path id="vancouver" d="M139.45 147.95l-1.53.6 2.8 3.26.7 3.9 2.8 3 2.38-.4v-3.9l-2.9-1.8-4.25-4.5z"/>
  <path id="guatemala" class="americas" d="M194.88 291.52l5.93 4.34 6-7.43-1-1.54-2-.1v-4.4l-1.5-1-4.6 1.4 1.8 4.1-4.4 4.5z"/>
  <path id="honduras" class="americas" d="M207.55 288.78l9.24-.35 2.7 3.26-1.7-.4-3.3.1-4.3 4-1.9 4.1-1.2-.7v-4.5l-2.7-1.8 3-3.9z"/>
  <path id="el salvador" class="americas" d="M201.65 296.27l4.7 2.34-.07-3.7-2.4-1.4-2.23 2.9z"/>
  <path id="nicaragua" class="americas" d="M217.74 292.1l2.2.45.06 4.5-2.55 7.27-6.87-.68-1.53-3.5 2.04-4.27 3.8-3.6 2.8-.16z"/>
  <path id="costa rica" class="americas" d="M217.38 304.98l1.4 2.72 1.12 1.5-1.52 4.5-2.9-2.03-4.74-4.34v-2.87l6.64.52z"/>
  <path id="panama" d="M220.6 309.6l-1.47 4.57 4.82 1.25 3 .6.5-3.54 3.2-1.62 2.86 1.47 1.2 1.8 1.4-.17 1.1-3.25-3.5-1.4-2.7-1.4-2.7 1.9-3.2 1.7-3.3-1.3-1-.3z"/>
  <path id="colombia" class="americas" d="M253.73 299.78l-2.06-.2-13.62 11.22-1.44 3.95-1.8.2.9 8.74-4.7 11.6 5.2 4.3 6.6.4 4.6 6.6 6.6.2-.2 5h2.4l2.7-9.2-2.5-3.1.7-5.8 5.2-.5-.6-13.5-11.5-3.8-2.7-7.3 6.6-9.2z"/>
  <path id="venezuela" d="M250.46 305.92l.44 2.6 3.25 1.02.74-4.77 3.4-3.55 3.4 4.02 7.9 2.15 6.6-1.4 4.5 5.6 3.4 2.1-3.8 5.7 1.2 4.3-2.2 2.6-2.3 1.8-4.8-2.5-1.1 1.1v3.4l3.5 1.6-2.6 2.8-2.6 2.8-3.4-.3-3.5-3.8-.7-14.3-11.8-4-2.2-6.3 2.2-3.3z"/>
  <path id="guyana" d="M285.05 314.13l7.22 6.54-2.87 3.32-.23 1.9 3.77 3.9-.1 3.7-6.55 2.5-4-5.3.8-6.4-1.7-4.8 3.5-5.5z"/>
  <path id="suriname" d="M293.13 321.14l2.04 1.87 3.16-1.9 2.88.1-.3 1.1-1.2 2.6-.2 6.3-5.7 2.4.3-4-3.7-3.4.2-1.7 2.7-3z"/>
  <path id="guyane" d="M302.13 321.8l5.85 3.65-3.06 6.08-1.1 1.4-3.26-1.87.1-6.55 1.47-2.7z"/>
  <path id="ecuador" d="M230.2 335.85l-4.73 2.94-.34 4.3-.95 1.4 2.98 2.8-1.3 1.4.3 3.6 5.34 1.3 8.07-9.6-.02-3.4-3.87-.3-5.48-4.8z"/>
  <path id="peru" d="M225.03 349.52l-1.94 1.96.1 3.13 16.9 30.9 17.6 11.4 2.7-4.5.6-10-1.4-6.2-4.8-8.1-2.9 1-1.3 1.5-5.7-6.5 1.4-7.7 6.6-4.3-.6-4-6.7-.2-3.5-5.8-2-.6.1 3.5-8.7 10.3-6.5-1.5-.4-3.7z"/>
  <path id="bolivia" d="M258.7 372.8l8.24-3.6 2.72.26 1.8 7.56L284 381.2l2.1 6.37 5.16.65 2.2 5.47-1.55 4.9-8.4.6-3.1 7.9-6.6-.2-2-.4-3.8 3.7-1.9-.2-6.4-15 1.8-2.7.6-10.6-1.6-6.3-1.6-2.9z"/>
  <path id="paraguay" d="M291.76 399.5l2.2 2.4-.26 5.1 6.34-.4 4.8 6.13-.4 5.47-3.1 4.7-6.34.25-.26-2.6 1.8-4.3-6.2-3.92h-5.17l-3.88-4.17 2.8-8.06 7.6-.6z"/>
  <path id="uruguay" d="M300.36 431.93l-2.05 2.2.9 11.77 6.5 1.87 8.2-8.2-13.4-7.64z"/>
  <path id="argentina" d="M305.47 418.2l1.94 1.82-7.3 10.95-2.6 2.87.9 12.5 5.7 6.92-4.8 8.34-3.6 1.56h-4.1l1.2 6.5-6.4 2.23 1.6 5.4-3.9 12.4 4.8 3.9-2.6 6.4-4.4 6.9 2.4 4.8-5.7.9-4.6-5.7-.8-17.9-7.2-30.4 2-10.6-4.7-13.6 3.1-17.6 2.9-3.4-.7-2.6 3.7-3.4 8.2.6 4.6 4.9 5.3.1 5.4 3.3-1.6 3.7.4 3.8 7.7-.3 3.6-5.5z"/>
  <path id="tierra del fuego chile" d="M285.04 514.1l-4.27 9.38 7.37.78.13-6.25-3.23-3.9z"/>
  <path id="tierra del fuego argentina" d="M288.92 518.8l.26 5.72 4.4-.4 3.75-2.47-6.34-1.3-2.1-1.56z"/>
  <path id="chile" d="M283.6 512.63l-3.22 3.55-.4 4.17-6.2-3.52-6.6-9.5-1.94-3.4 2.72-3.52-.26-4.4-3.1-1.3-2.46-1.8.52-2.5 3.23-.9.6-14.3-5.1-2.8-3.3-74.6.8-1.4 6.4 14.9h2l.6 2.4-2.8 3.3-3.2 17.9 4.5 13.8-2.1 10.4 7.3 30.7.7 18 5.2 6 5.5-.8z"/>
  <path id="chiloe" d="M262.28 475.14l-1.3 1.95.66 3.3 1.3.1.64-4.3-1.3-1.2z"/>
  <path id="brazil" d="M314.24 438.85l6.25-12.02.2-10.1 11.6-7.52h6.5l5.1-8.6.9-16.7-2.1-4.4 12.3-11.3.4-12.4-16.8-8.2-20.3-6.3-9.6-.9 2.5-5.4-.7-8.2-2.1-.7-3.1 6.2-1.6 2.1-4.2-1.8-14 4.9-4.7-5.8.7-6.1-4.4 4.5-4.9-2.7-.5.7v2.1l4.2 2.3-6.3 6.6H266l-4-4.1-4.54.2-.54 4.9 2.6 3.2-3.08 9.9-3.6.3-5.75 3.6-1.4 7.1 4.9 5.4.9-1 3.5-.9 2.9 5 8.5-3.7 3.3.2 2.3 8 12.1 3.9 2.1 6.5 5.2.66 2.5 6.1-1.7 5.5 2.2 2.84-.3 4.25 5.8-.57 5.3 6.8-.4 4.75 3.1 2.7-7.6 11.5 13.4 7.5z"/>
  <path id="belize" d="M204.56 282.4l-.05 3.65h.9l2.9-5.34h-1.9l-1.7 1.7z"/>
  <path id="russia" class="europe" d="M817.97 72.93l1.76 6.08 3.52 1.1 3.52-5.5-2-3.8.74-3.3h5.3l-1.2 2.5.5 9.1-7.5 18.8.8 4.1-.2 6.9 14 20.5 2.8.8.3-16.7 2.8-2.5-3-6.6 2.6-2.8-5.5-7.4-3 .3-1-12.1 7.8-2 .5-3.5 4-1 2.3 2 2.8-11.2 4.8-8.1 3.8-2 3.3.3V53l-5.3-1-7.3-6.1 3.5-4.07-3-6.86 2.5-2.5 3 4.1 7.5 2.8 8.3.7 1-3.53L868 32l4.76-6.6-10.8-3.8-2.76 5.57-3.54-4.56-19.85-6.8-18.8 3.3-2.7 1.5v1.6l4 2.1-.5 4.8-7.3-3-16 6.3-2.7-5.8h-11.1l-5 5.3-17.8-4-16.4 3.2-2.1 5 2.5.8-.2 3.8-15.8 1.8 1 5.1-14.7-2.6 3.6-6.5-14.8-.7 1.3 6.9-4.8 2.3-4-3.8-16.3 2.8-6.2 5.8-.2 3.6-4 .3-.5-4L678.7 40v-7.6l-8.3-2.28-10.8 3.54-4.52-4.56h-2l-2.52 5.06 2 2.27-14.32 7.85-12.3 9.37L618.4 64v4.3l8.04 3.3-4.02 3.04-8.54-3.05-3.5 3-5.3-6.1-1 2.3 5.77 18.2 1.5.5 4.03-2.1 2.02 1.6v3.3l-3.77-1.6-2.26 1.8 1.5 3.3-1.27 8.6-7.8.7-.5-2.8 4.53-2.7 1-7.6-5.02-6.6-1.7-11.4-8-1.3-.7 4 1.5 2-3.2 2.8 1.3 7.6 4.8 2 1 5.6-4.7-3.1-12.3-2.3-1.5 4-9.8 3.5-1.5-2.6-12.8 7.1-.2 4.8-5 .7 1.5-3.6V102l-5-1.7-3.2 1.3 2.8 5.36 2 3.5v2.8l-3.8-.8-.7-.74-3.7 4 2 3.56-8.5-.2 2.8 3.56-.7 1.52H532l-4-2.16-.76-6.32-5.26-2.02v-2.5l11.04 2.26 6.04.5 2.53-3.8-2.3-4.05-16.1-6.37-5.6 1.4-1.9 1.63.6 3.74 2.3.4-.6 5.9 7.3 17.1-5.3 8.35-.4 1.86 2.6 1.9-2.4 1.6h-1.6l.3 7.3 2.2 3.1.1 3.04 2.8.23 4.3 1.68 4.5 6.3v1.66l-1.5 2.5 3.4-.2 3.4.9 4.5 6.4 11.1 1-.5 7.6-3.8 3.2.8 1.3-3.8 4-1 3.8 2.3 3.3 7.3 2.5 3-1.8 19.4 7.3.7-2.1-4-3.8V198l-2.6-.74.5-4 4-4.8-7.2-5.4.5-7.53 7.7-5.1 9 .5 1.5 2.8 9.3.5 6.8-3.8-3.5-3.8.7-7.1 17.6-8.6 13.6 6.1 4.5-4.05 13.3 12.7 10.1-1 3.5 3.5 9.54 1 6.3-8.6 8.03 3.5 4.2.74 4.3-3.8-3.8-2.5 3.25-5.1 9.3 3.1 2 4 4.02.26 2.5-1.8 6.8-.23.7 1.8 7.8.5 5.23-5.6 10.8 1.3 3.3-1.27 1-6.1-3.3-7.3 3.2-2.8H759l9.8 11.66 12.57 7.1h3.77l.5-3 4.5-2.8.5 16.5-4.02.2V173l2.26 2.8-.4 3.6 1.67.7 1-2.57 1.5.5 1 1 4.53-1 4.54-13.2.5-16.47-5.78-13.2-7.3-8.85-3.5.5v2.8l-8.55-3.3 3.3-7.1 2.7-18.7 11.5-3.5 5.5-3.5h6l-1.5 2.1 1.5 2.5 5.2-5.6 3 .3-.5-3.2-4.8-1 3.2-11.9 4.3-4.1z"/>
  <path id="china" d="M670.4 170.07l-3.46 8.7-4.77-.25-5.03 11 4.27 5.45-8.8 12.15-4.5-.76-3 3.8.8 2.28 3.5.25 1.8 4 3.6.7 10.8 13.9v7.1l5.3 3.2 5.8-1 7.3 4.3 8.8 2.5 4.3-.5 4.8-.5 10.1-6.6 3.3.5 1.3 3 2.8.8 3.8 5.6-2.5 5.6 1.5 3.8 4.3 1.5.8 4.5 5.1.5.7-2.3 7.3-3.8 4.5.2 5.3 5.8 3.5-1.6 2.3.3 1 2.8 1.8.2 2.5-3.6 10.1-3.8 9.1-10.9 3-10.4-.2-6.9-3.8-.8 2.3-2.5-.5-4.1-9.6-9.6V210l2.8-3.6 2.8-1.3.3-2.8H770l-1.24 3.8-3.25-.73-4-4.3 2.5-6.6 3.5-3.8 3.3.2-.5 5.85 1.8 1.55 4.3-4.3 1.5-.22-.5-3.3 4-4.8 3 .2 1.8-5.6 2.1-1.1.2-3.5-2-2.1-.2-5.45 3.9-.22-.2-14.1-2.7 1.64-1 3.6h-4.5l-13.1-7.33-9.5-11.4-9.6-.1-2.4 2.1 3.1 7.1-1.1 6.6-3.8 1.6-2.1-.2-.1 6.6 2.3.5 4-1.7 5.3 2.5v2.5l-3.8.2-3 6.6-2.8.2-9.8 12.9-10.3 4.5-7.1.5-4.7-3.3-6.8 3.6-7.3-2.3-1.7-4.8-12.3-.7-6.5-10.6h-2.8l-2.2-4.9-2.62-.2z"/>
  <path id="mongolia" d="M673.8 170.17l5.82-7.72 7 3.23 4.74 1.27 5.82-5.34-3.95-2.9 2.6-3.6 7.76 2.8 2.6 4.4 4.8.2 2.5-1.9 5.2-.2 1.1 2 8.7.5 5.5-5.6 7.6.8-.5 7.7 3.3.8 4.1-1.8 4.3 2.1-.1 1.1-3.2.1-3.3 6.9-2.5.2-9.9 12.9-10.1 4.5-6.3.5-5.3-3.4-6.7 3.6-6.6-2-1.9-4.8-12.5-.9-6.4-10.8-3.1-.2-1.6-3.8z"/>
  <path id="north korea" d="M778.28 194.27l1.84.77.56 6.44 3.65.2 3.44-4.02-1.2-1.06.15-4.32 3.16-3.82-1.6-2.9 1.04-1.2.58-3-1.83-.83-1.56.8-1.9 5.85-3.1-.27-3.6 4.3.4 3.1z"/>
  <path id="south korea" class="asia" d="M788.34 198.2l6.18 5.04 1.05 4.88-.2 2.62-3.03 3.4-2.6.14-2.95-6.37-1.2-3 1.2-.9-.3-1.2-1.5-.6 3.2-3.8z"/>
  <path id="kazakhstan" d="M576.7 188.62l4.1-1.75 4.57-.16.32 7H583l-2.04 3.4 2.68 4.5 3.95 2.3.3 2.6 1.4-.5 1.3-1.6 2.2.5 1.1 2.3h2.8v-2.8l-1.8-5.1-.8-4.1 5-2.2 6.8 1.1 4.2 4.3 9.6-.9 5.3 7.7 6.3.3 1.7-2.8 2.2-.5.3-3.1 3.3-.1 1.7 2.1 1.8-4.1 15 2 2.5-3.3-4.3-5.2 5.6-12.4 4.6.3 3.1-7.6-6.3-.6-3.7-3.5-10 1.2-12.8-12.6-4.6 4.1-13.8-6.2-16.9 8.25-.5 5.9 4 4.6-7.7 4.4-10-.2-2.1-3.1-7.8-.4-7.5 4.8-.1 6.5 6.9 5.56z"/>
  <path id="turkmenistan" d="M593.85 207.6l-.62 2.62h-4.15v3.56l4.46 2.94-1.38 4.03v1.86l1.85.4 2.5-3.2 5.6-1.2 11.9 4.5.2 3.3 6.6.6 7.4-7.7-.9-2.4-4.9-1.1-13.8-9-.6-3.2h-5.2l-2.3 4.4H594z"/>
  <path id="uzbekistan" d="M628.92 219.06l3.08.16v-5.27l-2.92-1.7 4.92-6.2h2l2 2.33 5.23-2-7.23-2.5-.28-1.5-1.72.43-1.7 3-7.28-.2-5.35-7.5-9.4 1-4.48-4.4-6.2-1-4.5 1.9 2.6 8.7v2.9l1.9.1 2.3-4.4 6.2.1.9 3.4 13.3 8.8 5.1 1.2 1.4 3.2z"/>
  <path id="tajikistan" d="M630.2 211.84l4.1-5.1h1.55l.54 1.14-1.9 1.38v1.14l1.2.9 6 .36 1.9-.84.9.18.6 1.92 3.5.36 1.8 3.78-.6 1.14-.7.06-.7-1.44-1.6-.12-2.7.36-.2 2.52-2.7-.18.1-3.18-2-1.92-3 2.46v1.62l-2.6.9h-1.6l.1-5.58-2.5-1.86z"/>
  <path id="kirgizstan" d="M636.8 199.2l-.3 2.54.25 1.56 8.7 2.92-7.64 3.08-.8-.72-1.6 1.06.1.58.9.4 5.4.14 2.8-.82 3.5-4.4 4.4.76 5.3-7.3-14.1-1.92-1.9 4.73-2.4-2.6-2.1.1z"/>
  <path id="afghanistan" d="M614.12 227.05l1.6 12.46 3.95.9.37 2.3-2.84 2.4 5.3 4.3 10.27-3.7.82-4.4 6.4-4 2.5-9.3 1.8-2-2-3.3 6.2-3.8-.8-1.1-2.9.2-.3 2.7h-3.9l-.1-3.5-1.3-1.4-2.1 1.9v1.8l-3.2 1.2-5.9-.3-7.6 8-6.8-.6z"/>
  <path id="pakistan" d="M623.13 249.84l2.6 3.86-.25 2-3.46 1.36-.25 3.24h3.96l1.36-1.12h7.5l6.8 5.98.8-2.87h5l.1-3.7-5.2-5 1.1-2.8 5.3-.4 7.1-15-4-3.1-1.5-5.3 9.6-.9-5.7-8.1-3.1-.8-1.2 1.5h-.9l-5.7 3.6 1.8 3.1-2.1 2.2-2.6 9.6-6.4 4.1-.9 4.5-10.3 3.6z"/>
  <path id="india" class="asia" d="M670.98 313l4.58-2.23 2.72-9.84-.12-12.08 15.58-16.82v-4l3.2-1.24-.1-4.7-3.47-6.8 1.98-3.6 4.33 4 5.56.2v2.2l-1.74 1.9.4 1 3 .1.6 3.4h.9l2.3-4 1.1-10.5 3.7-2.6.1-3.6-1.42-2.9-2.35-.2-9.2 6.1.57 3.9h-6.46l-2.3-2.8-1.2.1.4 3.9-13.95-1-8.7-3.9-.5-4.8-5.8-3.6-.1-7.4-4-4.6-9.1.9 1 4 4.4 3.6-7.7 15.8-5.2.4-.9 1.9 5.1 4.7-.3 4.7-5.2-.1-.6 2.3 4.3-.2.1 1.9-3.1 1.6 2 3.7 3.8 1.2 2.4-1.8 1.1-3.1 1.3-.6 1.6 1.6-.5 4-1.1 1.9.2 3.3L671 313z"/>
  <path id="nepal" d="M671.2 242.56l.45 4.27 8.08 3.66 12.95.9-.5-3.2-8.64-2.4-7.34-4.4-5 1z"/>
  <path id="bhutan" d="M695.4 248.08l1.55 2.12 5.24.04-.6-2.9-6.3.74z"/>
  <path id="bangladesh" d="M695.57 253.1l-1.3 2.38 3.4 6.46.1 5.04.6 1.35 4 .07 2.26-2.17 1.64 1 .33 3.06 1.3-.9.1-3.9-1.1-.2-.7-3.4-2.78-.1-.7-1.9 1.7-2.3.04-1.2h-4.94l-3.95-3.7z"/>
  <path id="burma" d="M729.44 303.65l-2.77-4.44 2-2.8-1.9-3.5-1.78-.3-.4-5.8-2.7-5.2-.8 1.3-1.8 3.1-2.3.4-1.1-1.4-.6-3.9-1.7-3.1-6.9-6.4 1.7-1.1.3-4.7 2.5-4.2 1.1-10.4 3.6-2.4.1-3.8 2.1.7 3.4 5-2.6 5.5 1.7 4.3 4.2 1.7.7 4.7 5.7.9-1.6 2.7-7.2 2.85-.7 4.6 5.2 6.78.2 3.6-1.3 1.25.1 1.18 3.9 5.77.1 5.95-1.2 2.1z"/>
  <path id="thailand" d="M730.03 270.47l3.24 4.17v5.07l1.12.6 5.1-2.5 1 .4 6.1 7.1-.3 4.9-2-.3-1.8-1.1-1.4.2-2.4 3.9.4 2.1 1.9 1-.1 2.4-1.4.7-4.6-3.1v-3l-1.9-.1-.8 1.2-.4 12.7 2.9 5.4 5.2 5.1-.2 1.5-2.8-.1-2.6-3.8H732l-3.36-2.7-1-2.8 1.44-2.3.5-2.1 1.57-2.8-.07-6.4-3.84-5.6-.16-.7 1.25-1.2-.3-4.4-5.15-6.5.6-3.7 6.4-2.7z"/>
  <path id="malaysia" class="asia" d="M732.7 315.45l2.02 4.5.45 5.87 2.7 4.17 6.48 3.9 2.46.2-.4-4.1-2.1-5.2-3.1-6.6-.2 1.1-3.7-.2-2.7-3.9h-1.7z"/>
  <path id="cambodia" d="M740.48 299.47l4.1 4.37 7.6-5.64.67-8.9-3.93 2.7-2.04-1.13-2.77-.37-1.5-1.1-.7.05-2 3.33.4 1.54 2.1 1.15-.2 3.13-1.4.87z"/>
  <path id="laos" d="M735.47 262.93l-2.42 1.23-2 5.86 3.35 4.28-.56 4.73.56.23 5.6-2.7 7.5 8.37-.2 5.28 1.64.9 4.03-3.2-.33-2.6L741 274.2l.12-1.7 1.45-1-1-2.82-4.82-.8-1.28-4.93z"/>
  <path id="vietnam" d="M745.06 304.45l1.2 1.87.2 2.14 3.14.34 3.8-5.07 3.58-1 1.9-5.2-.9-8.33-3.68-5.07-3.9-3.1-4.94-8.5 3.55-5.95-5-5.83-4-.18-3.6 1.97 1.1 4.7 4.9.87 1.3 3.7-1.7 1.1.1.9 11.4 11.2.5 3.3-.7 10.4-8 5.8z"/>
  <path id="georgia" d="M555.46 204.16l3.27 4.27 4.08 1.88h2.6l4.3-1.1 1.1-1.7-12.8-4.8-2.5 1.5z"/>
  <path id="armenia" d="M569.72 209.9l4.8 6.25-1.4 1.65-3.4-.6-4.23-3.77.2-2.48 4-1.06z"/>
  <path id="azerbaijan" d="M571.4 207.72l-1 1.72 4.7 6.18 1.65-.53 2.7 2.8 1.17-5 2.93.4-.12-1.4-4.82-4.2-.9 2.4-6.3-2.6z"/>
  <path id="iran" d="M569.65 217.95l-1.22 1.27.12 2 1.52 2.14 5.4 5.9-.83 2.36h-.94l-.47 2.36 3.05 3.9 2.8.24 5.64 7.8 3.16.23 2.46 1.77.12 3.54 9.73 5.67h3.6l2.2-1.9 2.8-.1 1.6 3.77 10.5 1.46.3-3.86 3.5-1.26.1-1.38-2.8-3.78-6.2-4.96 3.2-2.95-.3-1.3-4.1-.63-1.7-13.7-.2-3.15-11-4.3-4.9 1.1-2.8 3.3-2.4-.2-.7.6-5.4-.4-6.8-5-2.6-2.8-1.2.3-2.1 2.4-3.7-.7z"/>
  <path id="turkey" d="M558.7 209.2l-2.23 2.35-8.2-.24-4.92-2.9-4.8-.1-5.5 3.9-5.17.3-.47 3h-5.8l-2.3 2.2v1.2l1.4 1.2v1.3l-.6 1.5.6 1.3 1.9-.9 1.9 2-.4 1.4-.7 1 1.1 1.2 5.2 1.1 3.6-1.5V226l1.8.34 4.2 2.5 4.6-.7 2-1.9 1.3.47v2.2h1.8l1.5-2.9 13.4-1.4 5.8-.7-1.5-2v-2.7l1.2-1.4-4.2-3.4.2-2.9H563l-3.84-1.9z"/>
  <path id="yemen" d="M572 289.23l1.43 4.28v4.2l3.46 3.2 24.3-9.9.2-2.7-3.9-7-9.9 3.1-5.6 5.6-6.6-3.8-3.7 3.3z"/>
  <path id="oman" class="asia" d="M598.38 280.84l7.4-4.26 1.3-6.25-1.62-.93.67-6.7 1.4-.82 1.52 2.37 9 4.7v2.6l-10.9 16.04-5 .1-3.77-6.9z"/>
  <path id="emirates" class="asia" d="M594 264.94l.88 3.48 9.86.87.7-7.2 1.9-1.1.5-2.6-3.1.8-3.46 5.2-7.27.3z"/>
  <path id="qatar" class="asia" d="M592.63 259.02l-.52 4 1.6 1.18 1.4-.13.5-5.05-1.2-.87-1.7.87z"/>
  <path id="kuwait" d="M583.3 247.17l-2.26-1.22-1.56 1.57.17 3.14 3.63 1.4v-4.9z"/>
  <path id="saudi" d="M584 253.24l7 9.77 2.27 1.8 1 4.4 10.8.9 1.22.7-1.3 5.4-7.1 4.2-10.4 3.2-5.6 5.4-6.6-3.8-4 3.5-5.6-9-3.8-1.7-1.4-2.1v-4.5l-13.6-17-.6-3h4l4.8-4.1.1-2.1-1.4-1.4 2.7-2.3 5.9.4 10 8.3 5.9-.3.4 1.4 4.9 1.9z"/>
  <path id="syria" d="M546.67 229.13l-.35 2.54 2.82 1.18-.12 7.04 2.82-.1 2.82-2.2 1.06-.2 6.4-5.1 1.3-7.4-12.8 1.3-1.35 2.9-2.6-.2z"/>
  <path id="iraq" d="M564.3 225.03l-1.55 7.7-6.46 5.4.4 2.53 6.3.43 10 8.1 5.6-.2.1-1.9 2-2.2 2.8 1.6.4-.4-5.6-7.4-2.7-.2-3.5-4.5.7-3.3 1-.2.4-1.5-4.8-5-5.5.8z"/>
  <path id="jordan" class="asia" d="M548.9 240.78l-2.46 8.58-.1 1.3h3.86l4.33-3.8.1-1.46-1.76-1.8 3.17-2.64-.46-2.44-.87.2-2.6 1.9-3.1.16z"/>
  <path id="lebanon" d="M546.2 232.44l.06 1.95-.82 2.9 2.82.2.18-4.2-2.24-1z"/>
  <path id="israel" d="M545.32 238.06l-1.58 5.03 2.05 6 2.3-8.8v-1.9l-2.8-.4z"/>
  <path id="cyprus" class="europe" d="M543.2 229.84l1.24.9-3.8 3.6-1.83-.06-1.3-.95.2-1.77 2.8-.18 2.8-1.54z"/>
  <path id="norway" class="europe" d="M515.46 102.14l2.02-1.48-.18-1.66-1.28-.74.18-2.03h1.1v-1.1l-4.77-1.3-7.15.74-.73 3.14-1.65-.5-1.1-1.8-3.5.2-.36 3.5-1.65.8-1-1.8-7.4 5.9 1.4 1.7-2.8 1.3-6.3 12.4-2.2 1.5.2 1.1 2.2 1.1-.6 2.4-3.7-.2-1.1-1.3-2.4 2.8-1.5 1.1-.4 2.6-1.3.8-3.3.8-1.7 5.2 1.1 8.5 1.3 3.9 1.4 1.5 3.3-.2 4.8-4.6 1.8-3.1.6 4.6 3.1-5.6.2-15.5 2.6-1.6.7-8.6 7.7-11.1 3.7-1.2 1.6-2 5.5 1.3 2.7 1.7.9-4.6 4.6-2.7 2.8 4.8z"/>
  <path id="britain" class="europe" d="M446.12 149.08l-1.83 2.77.7 1.1h4.2v1.86l-1.1 1.5.7 3.9 2.4 4.6 1.8 4.3 2.9 1.1 1.3 2.3-.2 2.1-1.9 1.1-.2 1 1.2.8-1.1 1.5-2.6 1.1-5-.5-7.7 3.5-2.6-1.3 7.3-4.2-.9-.5-3.9-.4 2.4-3.5.4-2.9 3.1-.4-.5-5.7-3.7-.2-1.1-1.3.2-4.2-2.2.2 2.2-7.4 4-2.9 1.3 1.2z"/>
  <path id="ulster" d="M438.42 161.47l-3.3.37-.18 2.96 2.2 1.48 2.38-.55.92-1.66-2.02-2.6z"/>
  <path id="ireland" class="europe" d="M439.5 166.55l-.9 6-8.07 2.96h-2.57l-1.83-1.2v-1.1l4.04-2.6-1.1-2.2.18-3.1 3.5.2 1.6-3.7-.22 3.4 2.7 2.2 2.68-.5z"/>
  <path id="sweden" class="europe" d="M497.72 104.58l1.96 1.8h3.67l2.02 3.9.55 6.64-4.95 3.5v3.52l-3.5 4.8-2 .2-2.76 4.6.2 4.45 4.8 3.5-.3 2-1.8 2.7-2.7 2.4.2 7.9-4.2 1.5-1.4 3.1h-2l-1.1-5.6-4.6-7.1 3.8-6.4.3-15.6 2.6-1.4.7-8.9 7.4-10.6 3.6-1.3z"/>
  <path id="finland" class="europe" d="M506.8 116.94l2.06.9 1.28 2.4-1.28 1.67-6.42 7.1-1.1 3.7 1.47 5.4 5 3.7 6.6-3.1 5.3-.7 5-7.9-3.6-8.7-3.5-8.3.6-5.3-2.2-.4-.5-3.9-2.9-4.8-3.3 2.3-1.2 5.3-3.5-2.1-4.8-1.1-1 1.3 1.9 1.7h3.4l2.7 4.4.5 7z"/>
  <path id="path302" d="M518.07 151.37l-6.85-1.1.15 3.82 6.35 3.8 2.6-.8-.15-2.9-2.1-3z"/>
  <path id="hiumaa" d="M506.76 147.64l-1.55-.05-.9.9.7.9 1.6.1.8-1.2-.5-.8z"/>
  <path id="saaremaa" d="M506.6 151.72l-1.5-.15-2.7 3.23v1.5l.9.36 1.76.05 2.9-2.3.4-.8-1.75-1.8z"/>
  <path id="lithuania" class="europe" d="M510.8 154.7l-2.14-.05-2.95 2.82h-2.5l.2 3.53-1.5 2.77 5.4.05 1.6-.2 1.6 1.87 3.6-.2 3.4-4.4-.2-2.6-6.3-3.8z"/>
  <path id="belarus" d="M510.66 166.3l1.5 2.46-.6 1.97.1 1.56.55 1.8 3.1-1.8 3.9.1 2.7 1.1h6.9l2-4.8 1.2-1.8v-1.2l-4.3-6.1-3.8-1.5-3.1-.4-2.7.8.1 2.7-3.7 4.7-3.7.1z"/>
  <path id="poland" d="M511.46 174.76l.85 1.56.2 1.66-.7 1.6-1.6 3.1-1.3.6-1.7-.76-1 .05-2.5.96-2.9-.86-4.7-3.33-4.6-2.47-1.8-2.82-.3-6.65 3.6-3.13 4.7-1.56 1.8-.2-.7 1.5.5.6 8 .2h1.7l2.8 4.3-.7 1.8.3 2.1.6 2.1z"/>
  <path id="spain" class="europe" d="M448.36 205h-12.74l-2.57-1.16-1.24.1-1.5 3.1.6 3.22 4.9.45.7 2.1-2.1 12 .1 2.2 3.5 1.9 4 .3 8-1.9 3.9-4.9.1-5 6.9-6.2.4-2.7-6.3-.1-6.2-3z"/>
  <path id="portugal" d="M430.93 211.24l-.62 8.65-1.7 1.6.2.9 1.3 2-.8 2.5 1.4.4 3.1-.4-.2-2.5 2.1-11.6-.4-1.6-4-.2z"/>
  <path id="majorca" d="M461.1 217.2l-1.6.55.36 1.43h2.3l.97-1.07-2.03-.9z"/>
  <path id="sardinia" d="M477.56 213.38l-2.65 1.34.4 5.17 2.1.3 1.6-1.5v-4.9l-1.4-.5z"/>
  <path id="corsica" d="M477.83 206.96l-1.95 1.96-.18 1.78 1.6.98.6-.1.36-2.58-.43-2.04z"/>
  <path id="france" class="europe" d="M460.4 178.7l-2.2.54-4.43 4.8-1.33.1-1.77-1.25-1.15.2-.88 2.7-6.46.2.18 1.4 4.42 2.9 5.13 4.1v4.9l-2.7 4.8 6 2.8 6.1.2 1.9-2.2 3.8.1 1.1.9 3.8-.3 2-2.5-2.4-3-.1-1.9.5-2.1-1.2-1.8-2.1.6-.2-1.6 4.7-5.2V185l-3.1-1.76-1.6-.3-7.3-4.8z"/>
  <path id="netherlands" d="M470.1 168.27l-4.54 2.23.96.87.1 2.23-.96-.2-1.06-1.64-2.53 4 3.9.82 1.44 1.53.8.1.5-3.4 2.5-1-1-5.3z"/>
  <path id="belgium" class="europe" d="M461.6 176.52l-.63 1.6 6.88 4.54 1.98.47.07-2.15-1.73-1.94h-1.06l-1.4-1.65-4-.9z"/>
  <path id="germany" class="europe" d="M471.14 167.88l3.57-.58v-2.52l3-.5 1.7 1.66 1.8.2 2.7-1.18 2.4.68 2.2 1.84.3 6.9 2.1 2.8-2.7.4-4.6 2.9.4.98 4.2 3.88-.3 1.94-3.8 1.94-3.5.1-.8 1.84H478l-.9-1.94-3.2-.78-.1-3.2-2.7-1.84.3-2.33-1.8-2.52.5-3.3 2.5-1.17-.85-6.2z"/>
  <path id="denmark" class="europe" d="M476.77 151.5l-4.15 4.6-.15 2.98 1.9 4.93 2.95-.5-.37-4 2.04-2.3-.1-1.8-1.5-3.7-.8-.1z"/>
  <path id="sjælland" d="M481.44 159.64l-.93-.04-1.2 1.12.2 1.75 2.9.08.2-1.98-1-.93z"/>
  <path id="gotland" d="M498.5 150.17l-2.12 1.67 1.06 2.45 1.87-1.9-.8-2.3z"/>
  <path id="switzerland" d="M472.9 189.38l-4.35 4.64.1.47 1.78-.6 1.6 2.2 2.73-1 1.88 1.4.77-.5 2.4-3.7-.6-.6-2.3-.1-1.1-2.3-2.8-.3z"/>
  <path id="czech" class="europe" d="M488.43 184.87h4.43l2.37 1.7 4.4-3.66-4.27-3-4.22-2-2.9.5-3.9 2.5 4.1 4z"/>
  <path id="slovakia" d="M495.84 187.13l.7.6.08 1.05 7.63-.17 5.64-2.4-.1-2.4-1.1.5-1.6-.8h-1l-2.5 1-3.4-.8-4.5 3.7z"/>
  <path id="austria" class="europe" d="M480.63 190.12l-.65 1.35.56.96 2.33-.48h1.98l2.15 1.82 4.57-.83 3.36-2 .86-1.35-.2-1.8-3-2.3h-4.1l-.4 2.3-4.2 2.1-3.4.1z"/>
  <path id="hungary" class="europe" d="M496.74 189.6l-1.16 1.82.1 2.78 1.84.95 5.7.17 7.92-6.68.04-1.48-.86-.43-5.73 2.6-7.9.27z"/>
  <path id="slovenia" d="M494.8 192l-2.54 1.5-4.74 1.05.95 2.74h3.32l3-2.6-.1-2.8z"/>
  <path id="croatia" class="europe" d="M495.62 195.16l-3.53 2.9h-3.6l-.5 2.53 1.6.4.8-1.2 1.3 1.1 1 3.6 7.1 3.3.7-.8-7.2-7.4.7-1.4 6.8-.3.7-2.2-4.5.1-1.7-.8z"/>
  <path id="bosnia" d="M494.8 198.94l-.37.6 6.7 6.93 2.47-3.62-.1-1.43-2.14-2.6-6.56.12z"/>
  <path id="italy" class="europe" d="M472.27 196.98l-.62 1.57.17 1.7 2.4 2.8 3.75-.13 8.3 9.64 5.18 1.5 3.06 2.9.8 6.58 1.7-.96 1.4-3.6-.3-2.57 2.5-.2.4-1.4-6.8-3.3-6.5-6.4-2.6-3.8-.6-3.6 3.3-.8-.8-2.4-2-1.7-1.8-.1-2.4.7-2.3 3.3-1.4.9-2.1-1.3-2.3.9z"/>
  <path id="sicily" d="M492.44 223.02l-1.45-.78-5 .78.1 1.34 4.4 2.24.6.73 1.1.17-.1-4.48z"/>
  <path id="malta" class="europe" d="M492.6 230.47l-1.66.34.06 1.9 1.5.5.67-.5-.56-2.1z"/>
  <path id="ukraine" d="M515.57 173.15l-2.9 1.63.72 3.08-2.7 5.65v2.5l1.2.8 8 .4 2.2-1.8 2.4.8 3.4 4.7-2.6 4.6 3 .9 3.9-4.5 2.2.4 2.1 1.5-1.9 2.5 2.5 3.9h2.7l1.3-2.6 2.8-.6.1-2.1-5.3-.8.1-2.3h5.1l5.4-4.3 2.4-2.1.4-6.6-10.8-1-4.5-6.2-3-1-3.7.2-1.7 4.1-7.6.1-2.5-1.1-3.6-.2z"/>
  <path id="moldova" d="M520.75 187.7l3.1 4.78-.26 2.7 1.1.05 2.6-4.45-3.2-3.92-1.8-.74-1.6 1.6z"/>
  <path id="romania" d="M512.18 187.6l-.26 1.48-5.8 4.82 4.85 7.1 3.1 2.17h5.58l1.84-1.54 2.4-.32 1.8 1.2 3.2-3.7-.7-1.8-3.3-.8-2.3-.1.1-3.2-3-4.7-7.8-.4z"/>
  <path id="montenegro" d="M504.9 207.25l-.04-.94-1.32-1.8-2.14 3 .42 1.3 1.74.3 1.34-1.8z"/>
  <path id="serbia" d="M505.55 194.54l-2.05 1.54h-1l-.68 2.12 2.42 2.8.16 2.24-.34.48 1.64 2.3.05 1.22 1.18 1.14 3.84-1.17-.32-5.4-4.9-7.2z" />
  <path id="bulgaria" class="europe" d="M511.44 202.4l.16 4.97 1.68 3.5 6.3.1 2.85-2 2.8-1.1-.7-3.2.64-1.7-1.42-.73-1.95.16-1.53 1.54-6.42.05-2.4-1.6z"/>
  <path id="albania" d="M504.02 209.76v4.6l1.32 2.5.95-.1 1.6-2.98-1-1.33-.4-3.3-1.3-1.16-1.3 1.7z"/>
  <path id="macedonia" d="M510.92 208l-3.37 1.12.16 2.86.8 1 4-1.85L511 208z"/>
  <path id="greece" class="europe" d="M506.7 217.6l-.1 1.33 4.63 2.33 2.2.85-1.15 1.3-2.58.3-.37 1.2.9 2 2.88 1.6 1.3.2.2-3.4 1.9-2.3-5.1-6.1.7-2 1.2-.1 1.9 1.5 1.2-.6.4-2h5.4l.2-3.1-2.2 1.6-6.6-.2-4.3 2.2-2.2 3.8z"/>
  <path id="thrace" d="M523.02 209.7l-.16 3.55 3.1-.95 1.42-.95-.42-1.54-1.47-1.1-2.5 1.1z"/>
  <path id="crete" d="M516.76 230.6l1.63.04.6 1h2.3l1.6-.57.5.64-1.1 1.4-4.7.2-.9-1.1-.9-.5.6-1z"/>
</svg>
